<?xml version="1.0" encoding="utf-8"?>
<!-- Generator: Adobe Illustrator 25.3.1, SVG Export Plug-In . SVG Version: 6.00 Build 0)  -->
<svg version="1.1" id="b759170a-51c3-4e2f-999d-77dec9fd6d11"
	 xmlns="http://www.w3.org/2000/svg" xmlns:xlink="http://www.w3.org/1999/xlink" x="0px" y="0px" viewBox="0 0 1140.6 787.3"
	 style="enable-background:new 0 0 1140.6 787.3;" xml:space="preserve">
<style type="text/css">
	.st0{fill:#30374E;}
	.st1{fill:#2271FF;}
	.st2{fill:#4AFF4A;}
	.st3{fill:#444053;}
	.st4{fill:#AFC0E0;}
	.st5{opacity:0.2;fill:#FFFFFF;enable-background:new    ;}
	.st6{opacity:0.1;enable-background:new    ;}
	.st7{fill:#E3E8F4;}
	.st8{fill:none;stroke:#535461;stroke-width:2;stroke-miterlimit:10;}
	.st9{opacity:0.25;enable-background:new    ;}
	.st10{fill:url(#SVGID_1_);}
	.st11{fill:#434175;}
	.st12{opacity:5.000000e-02;enable-background:new    ;}
	.st13{fill:#565387;}
	.st14{fill:#EE8E9E;}
	.st15{opacity:0.1;}
	.st16{fill:#FF2A42;}
	.st17{font-family:'MicrosoftSansSerif';}
	.st18{font-size:60px;}
</style>
<ellipse class="st0" cx="789.9" cy="749.5" rx="270" ry="37.7"/>
<path class="st1" d="M148.7,586.8c0,0,13.2-3,21.9,5.9c0,0-5.6,5-18.6-0.5L148.7,586.8z"/>
<path class="st1" d="M147.3,586.6c0,0-7.8,11.1-2.9,22.5c0,0,6.8-3.2,6.6-17.5L147.3,586.6z"/>
<path class="st1" d="M138.5,569.9c0,0,4.7-10.2,27,2.1c0,0-2.4,6.8-11.9,6.9S141.3,574.9,138.5,569.9z"/>
<path class="st2" d="M137.1,569.3c0,0-11.2-0.5-10.5,24.9c0,0,7.1,1,11.6-7.4S140.2,574.2,137.1,569.3z"/>
<path class="st2" d="M129.3,549.5c0,0,5-17.7,28.5-6.9c0,0-4.1,16.2-25.8,12.6L129.3,549.5z"/>
<path class="st2" d="M120.6,524.2c0,0,10.6-18.2,32.5-3.4c0,0-6.2,16.9-30.3,9.5L120.6,524.2z"/>
<path class="st2" d="M116.4,499.8c0,0,12.6-17,34.4-2.3c0,0-12.1,14.9-34.1,6.4L116.4,499.8z"/>
<path class="st2" d="M112.7,476.1c0,0,12.8-17.7,33.6-3.2c0,0-14.7,15.8-33.3,7.1L112.7,476.1z"/>
<path class="st2" d="M112.5,454.8c0,0,13.1-22.5,32.7-9.2c0,0-14.4,19.6-32.4,13.3L112.5,454.8z"/>
<path class="st2" d="M114.3,429.8c0,0,14-22.4,33.1-7.2c0,0-17.1,19.8-32.9,11.1L114.3,429.8z"/>
<path class="st2" d="M117.9,407.4c0,0,17-21.3,33.6-14.4c0,0-17.7,22.6-34,19.8L117.9,407.4z"/>
<path class="st2" d="M122.9,386c0,0,19.5-26,32.4-18.6c0,0-14.3,20.1-33.6,23.3L122.9,386z"/>
<path class="st2" d="M130.5,361c0,0,17.2-21.3,31-17.2c0,0-14.4,21.9-33.1,23.7L130.5,361z"/>
<path class="st2" d="M137.4,337.7c0,0,19.2-20.6,28.3-17.8c0,0-13.4,22.4-28.9,22.1L137.4,337.7z"/>
<path class="st2" d="M144.1,316.2c0,0,16.1-24.2,25.8-23c0,0-9.3,21.2-25.7,25.3L144.1,316.2z"/>
<path class="st2" d="M151.1,287.2c0,0,14.4-18.7,22.8-19.2c0,0-10.7,24.3-23.1,25L151.1,287.2z"/>
<path class="st2" d="M155.1,268l12.6-37.7c0,0,3,33.1-14,44.6L155.1,268z"/>
<path class="st2" d="M158.5,227.2c0,0,0.4-30.8-1.3-33.2c0,0,12.5,24.7,2.1,46.7L158.5,227.2z"/>
<path class="st2" d="M128.6,549.2c0,0-16.3-8.6-24.8,15.7c0,0,14.5,8.3,27-9.8L128.6,549.2z"/>
<path class="st2" d="M120,523.2c0,0-19.7-7.5-27.3,17.9c0,0,15.5,9.2,29.5-11.8L120,523.2z"/>
<path class="st2" d="M115.6,501.3c0,0-14.8-15.1-34.4,2.3c0,0,13.9,13.2,34.6,1.8L115.6,501.3z"/>
<path class="st2" d="M112.2,476.1c0,0-15-15.8-33.7,1.4c0,0,16.7,13.7,34,2.5L112.2,476.1z"/>
<path class="st2" d="M112.6,455.4c0,0-11.4-23.5-31.8-11.7c0,0,12.9,20.6,31.2,15.7L112.6,455.4z"/>
<path class="st2" d="M115.4,429.6c0,0-11.3-23.9-32.1-11.1c0,0,14.7,21.6,31.3,14.9L115.4,429.6z"/>
<path class="st2" d="M120,407.3c0,0-5.6-26.7-23.6-27.9c0,0,5.7,28.1,21.5,32.9L120,407.3z"/>
<path class="st2" d="M123.4,386c0,0-3.7-32.3-18.5-32.5c0,0,2.1,24.6,17.1,37.1L123.4,386z"/>
<path class="st2" d="M132,360c0,0-6.2-26.7-20.5-29c0,0,3.5,26,19.5,35.7L132,360z"/>
<path class="st2" d="M139.1,337.8c0,0-2-28.1-10.9-31.6c0,0-3.6,25.8,8.6,35.4L139.1,337.8z"/>
<path class="st2" d="M144.8,315.8c0,0-3.1-28.8-12.3-32.3c0,0-1.5,23.1,11.1,34.3L144.8,315.8z"/>
<path class="st2" d="M152.5,289.5c0,0-1.6-23.5-8.4-28.6c0,0-4.6,26.2,5.4,33.6L152.5,289.5z"/>
<path class="st2" d="M154.3,266.9l-8.8-38.7c0,0-6.2,32.6,9.6,45.8L154.3,266.9z"/>
<path class="st2" d="M152.9,227.9c0,0-17.6-25.3-17.5-28.2c0,0,3.5,27.5,24.4,39.9L152.9,227.9z"/>
<path class="st2" d="M154.3,220c0,0-17.5-36.4-24.4-39c0,0,22.1,9.4,25.6,37.8L154.3,220z"/>
<path class="st3" d="M150.8,293.2l-1-0.2c9.9-42,11.2-68.5,3.9-74.6l0.7-0.8C162.1,224.1,160.9,250.2,150.8,293.2z"/>
<path class="st3" d="M122.5,391.9l-1.6-0.4c1.1-3.9,2.3-7.8,3.5-11.7c11-33.7,20.1-65,25.8-88.9l1.3-0.8
	c-5.6,24-14.5,56.4-25.5,90.2C124.8,384.2,123.6,388.1,122.5,391.9z"/>
<path class="st3" d="M169.6,616.3c-0.2-0.2-22.2-21.9-39.1-60.2c-9.9-22.5-16.2-46.3-18.6-70.8c-3-30.5,1.1-65.1,10-96.9l1.3,1.3
	c-20,71.3-6.2,130.3,9.2,165.4c16.7,38,38.5,59.5,38.7,59.7L169.6,616.3z"/>
<path class="st1" d="M193.8,502.1c0,0,8-1.8,13.2,3.5c0,0-3.4,3-11.3-0.3L193.8,502.1z"/>
<path class="st1" d="M192.9,502c0,0-4.7,6.7-1.7,13.6c0,0,4.1-2,4-10.5L192.9,502z"/>
<path class="st1" d="M187.6,491.9c0,0,2.8-6.1,16.3,1.3c0,0-1.4,4.1-7.2,4.2S189.3,494.9,187.6,491.9z"/>
<path class="st1" d="M186.8,491.5c0,0-6.8-0.3-6.4,15.1c0,0,4.3,0.6,7-4.5S188.6,494.5,186.8,491.5z"/>
<path class="st1" d="M182,479.6c0,0,3.1-10.7,17.2-4.2c0,0-2.5,9.8-15.6,7.6L182,479.6z"/>
<path class="st1" d="M176.8,464.3c0,0,6.4-11,19.6-2.1c0,0-3.8,10.2-18.3,5.8L176.8,464.3z"/>
<path class="st2" d="M174.3,449.5c0,0,7.6-10.2,20.8-1.4c0,0-7.3,9-20.6,3.9L174.3,449.5z"/>
<path class="st2" d="M172,435.2c0,0,7.7-10.7,20.3-1.9c0,0-8.9,9.6-20.1,4.3L172,435.2z"/>
<path class="st2" d="M171.9,422.3c0,0,8-13.6,19.7-5.5c0,0-8.7,11.8-19.6,8L171.9,422.3z"/>
<path class="st2" d="M173,407.2c0,0,8.5-13.5,20-4.4c0,0-10.3,11.9-19.9,6.7L173,407.2z"/>
<path class="st2" d="M175.2,393.6c0,0,10.3-12.9,20.3-8.7c0,0-10.7,13.7-20.5,11.9L175.2,393.6z"/>
<path class="st2" d="M178.2,380.7c0,0,11.8-15.7,19.6-11.3c0,0-8.6,12.1-20.3,14.1L178.2,380.7z"/>
<path class="st2" d="M182.8,365.6c0,0,10.4-12.9,18.8-10.4c0,0-8.7,13.2-20,14.3L182.8,365.6z"/>
<path class="st2" d="M186.9,351.5c0,0,11.6-12.5,17.1-10.8c0,0-8.1,13.5-17.5,13.4L186.9,351.5z"/>
<path class="st2" d="M191,338.5c0,0,9.7-14.6,15.6-13.9c0,0-5.6,12.8-15.5,15.3L191,338.5z"/>
<path class="st2" d="M195.3,321c0,0,8.7-11.3,13.8-11.6c0,0-6.5,14.7-13.9,15.1L195.3,321z"/>
<path class="st2" d="M197.7,309.4l7.6-22.8c0,0,1.8,20-8.5,27L197.7,309.4z"/>
<path class="st2" d="M199.7,284.7c0,0,0.3-18.6-0.8-20c0,0,7.5,15,1.3,28.2L199.7,284.7z"/>
<path class="st1" d="M181.7,479.4c0,0-9.8-5.2-15,9.5c0,0,8.8,5,16.3-5.9L181.7,479.4z"/>
<path class="st2" d="M176.4,463.6c0,0-11.9-4.5-16.5,10.8c0,0,9.4,5.5,17.8-7.1L176.4,463.6z"/>
<path class="st2" d="M173.8,450.4c0,0-8.9-9.1-20.8,1.4c0,0,8.4,8,20.9,1.1L173.8,450.4z"/>
<path class="st2" d="M171.7,435.2c0,0-9.1-9.5-20.4,0.8c0,0,10.1,8.3,20.5,1.5L171.7,435.2z"/>
<path class="st2" d="M171.9,422.6c0,0-6.9-14.2-19.2-7.1c0,0,7.8,12.5,18.9,9.5L171.9,422.6z"/>
<path class="st2" d="M173.7,407.1c0,0-6.9-14.5-19.4-6.7c0,0,8.9,13.1,18.9,9L173.7,407.1z"/>
<path class="st2" d="M176.4,393.6c0,0-3.4-16.1-14.2-16.9c0,0,3.4,17,13,19.9L176.4,393.6z"/>
<path class="st2" d="M178.5,380.7c0,0-2.2-19.5-11.2-19.6c0,0,1.3,14.9,10.3,22.5L178.5,380.7z"/>
<path class="st2" d="M183.7,365c0,0-3.8-16.1-12.4-17.5c0,0,2.1,15.7,11.8,21.6L183.7,365z"/>
<path class="st2" d="M188,351.6c0,0-1.2-17-6.6-19.1c0,0-2.2,15.6,5.2,21.4L188,351.6z"/>
<path class="st2" d="M191.4,338.3c0,0-1.9-17.4-7.4-19.5c0,0-0.9,14,6.7,20.7L191.4,338.3z"/>
<path class="st2" d="M196.1,322.4c0,0-1-14.2-5-17.3c0,0-2.8,15.8,3.2,20.3L196.1,322.4z"/>
<path class="st2" d="M197.2,308.7l-5.3-23.4c0,0-3.8,19.7,5.8,27.7L197.2,308.7z"/>
<path class="st2" d="M196.3,285.2c0,0-10.6-15.3-10.6-17.1c0,0,2.1,16.6,14.8,24.1L196.3,285.2z"/>
<path class="st2" d="M197.1,280.4c0,0-10.6-22-14.8-23.5c0,0,13.4,5.7,15.5,22.9L197.1,280.4z"/>
<path class="st3" d="M195.1,324.6l-0.6-0.2c6-25.4,6.8-41.4,2.4-45.1l0.4-0.5C201.9,282.8,201.2,298.6,195.1,324.6z"/>
<path class="st3" d="M178,384.3l-1-0.3c0.7-2.3,1.4-4.7,2.1-7c6.6-20.4,12.2-39.3,15.6-53.8l0.8-0.5c-3.4,14.5-8.8,34.1-15.4,54.5
	C179.3,379.6,178.6,382,178,384.3z"/>
<path class="st3" d="M206.4,520c-0.1-0.1-13.4-13.2-23.6-36.4c-6-13.6-9.8-28-11.2-42.8c-1.8-18.5,0.7-39.4,6.1-58.6l0.8,0.8
	c-12.1,43.1-3.7,78.8,5.6,100c10.1,23,23.3,35.9,23.4,36.1L206.4,520z"/>
<path class="st4" d="M236.5,570c-2.6,0.5-5.1,1.2-7.5,2.1c-53.9,21.5-53,162.5-53,162.5h-15.9c0,0-5-60.5-26.8-146.8
	c-19.6-77.7,60.9-147.3,77.2-160.5c1.8-1.5,2.9-2.2,2.9-2.2C294.5,454.9,236.5,570,236.5,570z"/>
<path class="st5" d="M219.3,427.5c-1.9-0.9-3.8-1.7-5.9-2.4c0,0-1,0.8-2.9,2.2c-16.4,13.2-96.9,82.8-77.2,160.5
	c21.8,86.3,26.7,146.8,26.7,146.8h8.9c0,0-4.9-60.5-26.8-146.8C122.7,510.5,202.4,441.1,219.3,427.5z"/>
<path class="st4" d="M504,587.8c-21.8,86.3-26.8,146.8-26.8,146.8h-15.9c0,0,1-147.4-56.7-163.8c-1.3-0.4-2.5-0.7-3.8-0.9
	c0,0-58-115.1,23.1-144.9c0,0,0.8,0.6,2.3,1.8C441.3,438.9,523.9,509.2,504,587.8z"/>
<path class="st6" d="M236.5,570c-2.6,0.5-5.1,1.2-7.5,2.1c-9.8-47.7-15.9-96.1-18.5-144.8c1.8-1.5,2.9-2.2,2.9-2.2
	C294.5,454.9,236.5,570,236.5,570z"/>
<path class="st6" d="M426.3,426.9c-3.3,48.5-10.5,96.7-21.6,144c-1.3-0.4-2.5-0.7-3.8-0.9c0,0-58-115.1,23.1-144.9
	C424,425.1,424.8,425.7,426.3,426.9z"/>
<path class="st7" d="M396.6,591.8c-5.6,22.1-12.2,44.8-19.7,68c-11.3,34.9-35.7,37.2-122,0c0,0-8.6-24.3-18.1-65.6
	c-20.9-90.8-45.9-263.9,7.4-441.7C260.1,99,282.7,47.8,311.4,0c0,0,45.6,52.3,79,152.4S445.1,400.5,396.6,591.8z"/>
<circle class="st4" cx="318.7" cy="293.6" r="71.6"/>
<path class="st1" d="M369.5,293.6c0,28.1-22.7,50.8-50.8,50.8c-11.7,0-23.1-4.1-32.2-11.5c-3.6-3-6.8-6.5-9.5-10.3
	c-1.2-1.7-2.3-3.5-3.3-5.4c-3.8-7.3-5.8-15.4-5.8-23.6c0-0.4,0-0.8,0-1.2c0.5-22.3,15.5-41.6,37-47.7c4-1.1,8.1-1.7,12.2-1.9h1.5
	C346.7,242.8,369.4,265.6,369.5,293.6L369.5,293.6z"/>
<path class="st4" d="M390.4,152.4c-81.3,38.9-146.2,0-146.2,0C260.1,99,282.7,47.8,311.4,0C311.4,0,357,52.3,390.4,152.4z"/>
<path class="st4" d="M396.6,591.8c-3.8,15-8,30.2-12.7,45.7c-2.2,7.4-4.5,14.8-7,22.3c-3.7,11.2-35.7,37.2-122,0c0,0-2.8-7.9-7-22.3
	c-3.1-10.9-7-25.5-11.1-43.3c0,0,32.1,13.7,77.7,13.7C342.6,607.9,370.5,602.5,396.6,591.8z"/>
<path class="st7" d="M383.9,637.4c-2.2,7.4-4.5,14.8-7,22.3c-3.7,11.2-35.7,37.2-122,0c0,0-2.8-7.9-7-22.3
	C247.9,637.4,335.8,662.7,383.9,637.4z"/>
<path class="st5" d="M304.9,244.6l-0.1,0.1l-36.9,47.6c0,0.4,0,0.8,0,1.2c0,8.2,2,16.3,5.8,23.6l43.5-74.4L304.9,244.6z"/>
<path class="st5" d="M316.7,287.6l-30.2,45.2c-3.6-3-6.8-6.5-9.5-10.3l36-38.6L316.7,287.6z"/>
<path class="st5" d="M274.2,659.8c0,0-8.6-24.3-18.1-65.6c-20.9-90.8-45.9-263.9,7.4-441.7c14.3-48.1,34.1-94.4,58.9-138.1
	c-6.8-9.5-11-14.3-11-14.3c-28.7,47.8-51.3,99-67.2,152.4c-53.3,177.8-28.3,350.9-7.4,441.7c9.5,41.3,18.1,65.6,18.1,65.6
	c34.1,14.7,60.3,17.8,79.5,16.1C317.9,674.6,298,670,274.2,659.8z"/>
<path class="st8" d="M937,728.9c0,0,46.7-58.2,43.6-116.4c-1.5-24.4,5.1-48.7,18.5-69.1c6.5-9.7,13.9-18.7,22-27"/>
<path class="st2" d="M1019.4,479.8c-3.3,8.1,1.7,37.7,1.7,37.7s24.4-17.5,27.7-25.6s-0.5-17.4-8.6-20.7
	C1032,467.8,1022.7,471.7,1019.4,479.8L1019.4,479.8L1019.4,479.8z"/>
<path class="st2" d="M976.6,514.7c1.6,8.6,21.9,30.7,21.9,30.7s11-27.9,9.3-36.5c-1.6-8.6-9.9-14.3-18.5-12.7S975,506.1,976.6,514.7
	L976.6,514.7z"/>
<path class="st1" d="M946.1,591.9c5.7,6.6,34.4,15.5,34.4,15.5s-4.6-29.6-10.4-36.3c-5.9-6.5-15.9-7-22.4-1.1
	C941.4,575.7,940.7,585.4,946.1,591.9L946.1,591.9z"/>
<path class="st1" d="M936.1,655.6c4.5,7.5,31.3,21.1,31.3,21.1s0.4-30-4.1-37.5s-14.3-9.9-21.8-5.4S931.6,648.1,936.1,655.6z"/>
<path class="st2" d="M1028.7,559.7c-8.1,3.2-37.7-2-37.7-2s17.7-24.2,25.9-27.5c8.1-3.3,17.4,0.7,20.6,8.9
	S1036.8,556.5,1028.7,559.7L1028.7,559.7z"/>
<path class="st2" d="M1016.1,634c-8.7,0.7-35.3-13.2-35.3-13.2s24.1-17.8,32.9-18.5c8.8-0.5,16.3,6.2,16.7,15
	C1030.9,625.8,1024.6,633.2,1016.1,634z"/>
<path class="st1" d="M994,704.5c-8.5,2.1-37-7.1-37-7.1s20.8-21.6,29.3-23.7c8.5-2.1,17.1,3,19.3,11.5
	C1007.6,693.7,1002.5,702.3,994,704.5z"/>
<path class="st9" d="M936.1,655.6c4.5,7.5,31.3,21.1,31.3,21.1s0.4-30-4.1-37.5s-14.3-9.9-21.8-5.4S931.6,648.1,936.1,655.6z"/>
<g>
	<path class="st9" d="M1019.4,479.8c-3.3,8.1,1.7,37.7,1.7,37.7s24.4-17.5,27.7-25.6s-0.5-17.4-8.6-20.7
		C1032,467.8,1022.7,471.7,1019.4,479.8L1019.4,479.8L1019.4,479.8z"/>
	<path class="st9" d="M976.6,514.7c1.6,8.6,21.9,30.7,21.9,30.7s11-27.9,9.3-36.5c-1.6-8.6-9.9-14.3-18.5-12.7
		S975,506.1,976.6,514.7L976.6,514.7z"/>
	<path class="st9" d="M946.1,591.9c5.7,6.6,34.4,15.5,34.4,15.5s-4.6-29.6-10.4-36.3c-5.9-6.5-15.9-7-22.4-1.1
		C941.4,575.7,940.7,585.4,946.1,591.9L946.1,591.9z"/>
	<path class="st9" d="M1028.7,559.7c-8.1,3.2-37.7-2-37.7-2s17.7-24.2,25.9-27.5c8.1-3.3,17.4,0.7,20.6,8.9
		S1036.8,556.5,1028.7,559.7L1028.7,559.7z"/>
	<path class="st9" d="M1016.1,634c-8.7,0.7-35.3-13.2-35.3-13.2s24.1-17.8,32.9-18.5c8.8-0.5,16.3,6.2,16.7,15
		C1030.9,625.8,1024.6,633.2,1016.1,634z"/>
</g>
<path class="st9" d="M994,704.5c-8.5,2.1-37-7.1-37-7.1s20.8-21.6,29.3-23.7c8.5-2.1,17.1,3,19.3,11.5
	C1007.6,693.7,1002.5,702.3,994,704.5z"/>
<path class="st8" d="M937.4,726.5c0,0,66.3-34.2,87.1-88.7c8.6-22.9,24.3-42.4,44.9-55.6c9.8-6.2,20.2-11.5,31-15.8"/>
<path class="st2" d="M1113.7,532.1c-6.3,6.1-13.8,35.1-13.8,35.1s29.4-6.1,35.7-12.2c6.4-6.1,6.6-16.1,0.5-22.5
	S1120.1,526,1113.7,532.1L1113.7,532.1L1113.7,532.1z"/>
<path class="st2" d="M1060.4,546.7c-2,8.5,7.6,37,7.6,37s21.3-21.1,23.3-29.7c2-8.5-3.3-17.1-11.8-19.1
	C1071,533,1062.5,538.2,1060.4,546.7L1060.4,546.7z"/>
<path class="st2" d="M1001.2,604.9c2.6,8.4,25.2,28.1,25.2,28.1s7.8-29,5.2-37.3c-2.6-8.4-11.4-13.1-19.8-10.6
	C1003.4,587.7,998.7,596.5,1001.2,604.9L1001.2,604.9z"/>
<path class="st1" d="M966.3,659.1c1.1,8.7,20.1,31.9,20.1,31.9s12.6-27.2,11.4-35.9c-1.1-8.7-9.1-14.9-17.8-13.8
	S965.2,650.4,966.3,659.1L966.3,659.1z"/>
<path class="st2" d="M1089.8,608.9c-8.8-0.3-33.6-17.1-33.6-17.1s26-14.9,34.8-14.6c8.8,0.3,15.6,7.7,15.3,16.5
	C1105.9,602.4,1098.6,609.3,1089.8,608.9L1089.8,608.9z"/>
<path class="st2" d="M1048.2,671.7c-8.3-2.9-26.9-26.4-26.9-26.4s29.3-6.5,37.6-3.5c8.3,2.9,12.6,12,9.7,20.3
	C1065.6,670.3,1056.5,674.7,1048.2,671.7L1048.2,671.7z"/>
<path class="st2" d="M999.4,727.2c-8.6-1.5-31-21.5-31-21.5s27.8-11.3,36.4-9.8c8.6,1.5,14.4,9.7,12.9,18.3
	C1016.3,722.9,1008.1,728.7,999.4,727.2L999.4,727.2L999.4,727.2z"/>
<linearGradient id="SVGID_1_" gradientUnits="userSpaceOnUse" x1="852.6966" y1="1125.964" x2="852.6966" y2="628.3345" gradientTransform="matrix(1 0 0 1 -29.72 -346.36)">
	<stop  offset="0" style="stop-color:#808080;stop-opacity:0.25"/>
	<stop  offset="0.54" style="stop-color:#808080;stop-opacity:0.12"/>
	<stop  offset="1" style="stop-color:#808080;stop-opacity:0.1"/>
</linearGradient>
<path class="st10" d="M1031.7,694.4l-51.4-74.5c0,0-1-18.5-4.3-22.8s-0.7-13.9-0.7-13.9s3.6-5.3,0.5-5.8s-0.5-12.2-0.5-12.2
	l-0.2-18.7c0,0,2.9-18,0.5-22.3c-1.4-2.4-1.3-5.4,0.2-7.7c0,0,2.9-10.3,0-12.9s-2.2-18.7-1.4-31.4s-5-19.9-5-21.8s-19-20.6-19-22.3
	c0-1.7-12-8.6-19.2-10.5s-10.8-3.3-10.6-4.3s-11.3-4.8-11.3-4.8s-10.1-0.7-13.9-5.8c-3.8-5-15.6-6.5-15.9-6.5
	c-0.1-0.3-0.2-0.7-0.2-1c-0.1-0.3-0.2-0.7-0.2-1.1c0.9-1.5,1.8-3.1,2.5-4.7c0.2-0.5,0.5-1,0.7-1.5c4.2-0.2,8.5-1.1,11.8-3.7
	c3.4-2.9,5.5-7,5.8-11.5c0.2-4.4-0.8-8.8-2.8-12.8c-2.1-4.3-5.2-8.8-4.1-13.5c0.5-2,1.7-3.8,2.3-5.8c1.2-3.8,0.1-7.9-1.7-11.3
	c-1.8-3.5-4.3-6.5-6.4-9.9c-2.6-4.3-4.3-9-5.1-14c-0.4-2.6-0.6-5.3-1.9-7.6c-1.1-1.7-2.5-3.1-4.2-4.2c-7.5-5.4-16.6-8.1-25.8-7.8
	c-6.5,0.2-13.1,2-19.5,1.2c-3.9-0.5-7.6-1.9-11.4-3c-8.1-2.4-17.3-3.4-24.4,1.2s-9.8,13.7-14.6,20.8c-4.2,6.3-10.4,11.5-13.6,18.2
	c0-0.1,0.1-0.2,0.1-0.4c-0.8,1.5-1.4,3.2-1.8,4.8c-1.2,5.2-0.2,10.7,1.1,15.9c0.7,2.7,1.5,5.6,3.9,7.1c2.3,1.5,5.6,1.2,8.4,1.7
	c-0.1,0.5-0.2,0.9-0.3,1.4c-5.9,28,10.7,55.9,38.1,64c0,0.5,0,1,0,1.5c0,1.4-0.1,2.8-0.2,4.1l0,0c0,0-24.2-5-30.6-1.6
	c-6.5,3.4-19.2,6-21.1,7.9c-1.9,1.9-6.7,0.5-11,11.8s-4.8,22.8-10.3,28s-8.4,8.9-8.6,12.7s0.7,4.8-1.5,6s-5.3,6.2-4.3,8.2
	c0,0,1.2,4.8-2.6,7.2s-3.4,7.2-3.4,7.2s-1.4,5.3-4.8,6.5s-5.5,9.1-5.5,9.1l-10.9,12.6L679.8,516c-3.4-3.7-9.1-4-12.8-0.7l-10.6,9.6
	c-4.1,1-7.8,3.2-10.6,6.3c-2.3,2.4-4.2,5.1-5.5,8.2l-5.8,5.2c-3.7,4.6-4.3,11-1.5,16.3l13.8,15.3l0.1,0.1c-5.2,0.7-9.8,2.3-13.4,5.5
	c-20.7,18.2-20.9,35-17.8,42.7s29.3,37.2,29.3,37.2s15.2,19.8,37.2,30.3l0,0l-0.2,0.2c-0.4,0.5-0.9,1-1.3,1.5l-0.4,0.5l-0.3,0.5
	l-0.4,0.6c-0.1,0.2-0.2,0.3-0.3,0.5s-0.3,0.5-0.4,0.7l-0.3,0.5c-0.2,0.3-0.3,0.6-0.5,0.9l-0.2,0.3c-0.2,0.4-0.4,0.8-0.6,1.3
	c-0.1,0.2-0.1,0.3-0.2,0.5c-0.1,0.3-0.2,0.6-0.4,1s-0.2,0.4-0.2,0.6s-0.2,0.6-0.3,0.9s-0.1,0.5-0.2,0.7s-0.2,0.7-0.3,1.1
	s-0.1,0.4-0.2,0.7c-0.1,0.5-0.3,1.1-0.4,1.7c0,0.2-0.1,0.5-0.1,0.7c-0.1,0.4-0.1,0.8-0.2,1.2c0,0.3-0.1,0.6-0.1,0.9
	s-0.1,0.8-0.2,1.2L674,711c0,0.4-0.1,0.9-0.1,1.4c0,0.3,0,0.6,0,0.8c0,0.8-0.1,1.5-0.1,2.3c-0.5,28,1.2,32.1,1.2,32.1
	s3.4,8.9,12.8,9.6c1.4,0.1,2.8,0,4.1-0.2c12.5-2.2,41.8-7.2,52.1-5.3c6.2,1.2,17.7-0.5,25.9-2.1l2.2-0.4l1.5,4.8l4.8-1.3l4,2.3
	l2.5,1.5c4.7,16.1,24,10.6,24,10.6l4.5,2.6l46.4,1.2c0,0,10,6,16.4,7.9c0.8,0.2,1.5,0.4,2.3,0.5c4.3,0.3,8.6,0.4,12.9,0.2
	c3.5-0.1,6.3-0.2,6.3-0.2s-0.5-12.6-1.2-26.7c17.7-0.7,33.4-1.8,42.9-3.5c24.8-4.3,35.1-26.9,38.9-38.9c1.1,4.9,2,9.9,2.4,14.9
	c1,4.4,2.3,8.7,3.8,12.9c1.4,3.4,3.1,6.6,5.3,9.6c18.3-6.2,7.2-15.6,3.4-19.7s2.7-7.4,2.7-7.4s5-3.3,4.6-6.5s-0.7-6.5,15.6-6.2
	C1032.4,708.1,1031.7,694.4,1031.7,694.4z M778,541.4c0.2,1.4,2.5,16.1,4.5,20c0.4,0.8,0.6,3.7,0.5,7.9c-9.7-0.8-19.8-1.2-19.8-1.2
	c0.3,0.4,0.5,0.8,0.5,1.2l-1.5-0.3l-2.2-0.5L778,541.4L778,541.4z M742.7,597.6l16.8,2.7l1.4,0.2c-0.5,2.6-0.8,5.3-0.9,7.9
	c0,0.2,0.4,0.5,0.9,0.9c-0.2,1.3-0.3,2.7-0.3,4c0.3,1.3,8.1,4.2,17.1,6.6c-0.1,0.5-0.2,0.9-0.4,1.4l0,0c-7.9-4.2-20.4-6.1-21.9-9.2
	s-44-18-44-18s-1.5-0.8-4.2-2.1l11.2,2.1l3.1-0.3C728.5,595.4,735.5,596.7,742.7,597.6L742.7,597.6z"/>
<path class="st11" d="M977,704.8c0,0-6.7,40.2-40.5,46.2s-146.7,4.8-146.7,4.8s-64.5-9.3-87.8-63.8s-38.3-76.2-18.3-77.1
	s127.8,36.4,134,36.9S982.9,568.8,977,704.8z"/>
<path class="st12" d="M977,704.8c0,0-6.7,40.2-40.5,46.2s-146.7,4.8-146.7,4.8s-64.5-9.3-87.8-63.8s-38.3-76.2-18.3-77.1
	s127.8,36.4,134,36.9S982.9,568.8,977,704.8z"/>
<path class="st13" d="M674.4,749.5c0,0,3.4,8.9,12.6,9.5c1.4,0.1,2.7,0,4.1-0.2c12.4-2.1,41.4-7.1,51.7-5.2
	c6.2,1.2,17.5-0.5,25.7-2.1c5.4-1,9.3-2,9.3-2s-9.5-31.7-10.7-32.6s-42.8-26-42.8-26l-33-2.4h-0.1c0,0-6.1,0.4-11.2,6.6
	c-3.5,4.2-6.5,11.1-6.7,22.5C672.7,745.5,674.4,749.5,674.4,749.5z"/>
<path class="st12" d="M674.4,749.5c0,0,3.4,8.9,12.6,9.5c-3.3-4.2-6.3-8.5-9-13.1l0.2-23.1c-1.5-17.3,6.6-28.4,13-34.3h-0.1
	c0,0-17.4,1.2-17.9,29S674.4,749.5,674.4,749.5z"/>
<path class="st6" d="M817.5,699.1l30.7-24l48.3-47.6c0,0-5.2-0.2-13.1-0.6c-2,1.2-7.5,5.2-7.7,10c-0.2,5.8-13.1,0.4-19.7,3.7
	s-39.3,45.1-45,44.8s-10.2-2.9-12.6,1.2c0,0.1-0.1,0.2-0.2,0.3L817.5,699.1z"/>
<path class="st6" d="M679.9,695.2c1.1,0.5,2.2,1,3.3,1.5c23.3,10,52.1,31,54.3,34.8c1.3,2.3,18,12.5,30.9,20.1c5.4-1,9.3-2,9.3-2
	s-9.5-31.7-10.7-32.6s-42.8-26-42.8-26l-33-2.4h-0.1C691.1,688.6,685,689,679.9,695.2z"/>
<path class="st11" d="M615.1,626.9c3.1,7.6,29,36.9,29,36.9s16.4,21.4,39.8,31.4s52.1,31,54.3,34.8c1.4,2.5,20,13.7,33.1,21.3
	l2.9,1.7l6.5,3.8l3.4,2c0,0,8-6.4,15.9-12.8s15.6-12.8,15.8-13.1c0.2-0.7,3.3-8.8,2.6-9.3c-0.4-0.2-2-3.5-5-7.4
	c-3.2-4.2-7.4-7.7-12.1-10c-11-5-15.7-16.4-15.7-16.4s-1-0.8-2.6-1.8c-2.8-1.8-7.3-4.3-10.7-4.8c-5.2-0.7-15-11.4-15-11.4
	s-6.7-4.3-9.3-9.8c-2.5-5.2-39.4-30.6-42.8-32.9l89.5,57.5l21.4,13.8l30.7-24l48.3-47.6c0,0-6.5-0.3-16-0.7
	c-23.5-1-65.2-2.6-70.5-1.4c-4.3,1-8.7,1.3-13.1,0.8c0,0-11.9,0.5-19.7-3.6s-20.2-6.1-21.7-9.2S710.5,597,710.5,597
	s-57.4-30.5-77.8-12.4S612,619.3,615.1,626.9z"/>
<path class="st14" d="M800.1,452.2l7.4,24.5l9.5,55.2l35,2.4l10.1-16.8l10.1-16.8c0,0,6.3-22.3,10.8-43.9c4-19.1,6.6-37.6,2.3-39.7
	c-3.9-1.8-6.4-8.2-8-15.1c-0.2-0.8-0.4-1.7-0.6-2.6c-1.2-5.9-1.9-11.8-2.3-17.8c0,0-73.3-3.8-63.1,26.4c1.8,5.2,2.8,10.6,2.8,16.1
	c0,1.4-0.1,2.7-0.2,4.1C812.8,437.8,807.8,446.5,800.1,452.2z"/>
<path class="st7" d="M784.9,448.1l2.6,41.7l6,35.5l6.7,16.4l6,89.9c0,0,57.4,6.6,71.4-0.1c1-0.4,1.9-1.1,2.5-2
	c16.9-25.4,11.3-99.2,11.3-99.2l6.4-47.6l-4.3-24.7l-10.3-1.1l-8-0.8c0,0-1.8,2.2-4.4,5.7c-7.1,9.3-20,27.7-19.2,35.3
	c1.2,10.5-1.4,21.2-5.5,22.9s-7.4,4.5-8.1,1.7s-1.4-3.6-0.7-7.6s-3.1-16.4-3.1-16.4s-6.4-14.5-6-20.7s-0.7-13.3-2.6-15
	s-4.5-3.3-2.4-11s-9.4-22.5-9.4-22.5L784.9,448.1z"/>
<path class="st6" d="M860.7,552.2l2.4,71.2l13.8,7.6c1-0.4,1.9-1.1,2.5-2c16.9-25.5,11.3-99.2,11.3-99.2l6.4-47.6l-4.3-24.7
	l-10.4-1.1c4-19.1,6.6-37.6,2.3-39.7c-3.9-1.8-6.4-8.2-8.1-15.1l0,0l-7.4,50.4c0,0,0.6,4.5,0.8,9.2c0.2,3.5,0.1,7-0.6,8.9
	c-1.7,4.3-0.5,11.9-0.5,11.9c-4.3,7.6-6.4,21.6-7.5,35.1C860.2,535,860.7,552.2,860.7,552.2z"/>
<path class="st13" d="M876.9,400.5c0,0,12,1.5,15.8,6.5s13.8,5.7,13.8,5.7s11.4,3.8,11.2,4.8s3.3,2.4,10.5,4.3
	c7.1,1.9,19,8.8,19,10.5s18.8,20.2,18.8,22.1s5.7,9,5,21.7s-1.4,28.6,1.4,31.2s0,12.9,0,12.9c-1.5,2.3-1.6,5.3-0.1,7.6
	c2.4,4.3-0.5,22.2-0.5,22.2l0.2,18.6c0,0-2.6,11.7,0.5,12.1s-0.5,5.7-0.5,5.7s-2.6,9.5,0.7,13.8s4.3,22.6,4.3,22.6l51,74
	c0,0,0.7,13.6-15.5,13.3s-16,3.1-15.5,6.2s-4.5,6.4-4.5,6.4s-6.4,3.3-2.6,7.4s14.8,13.3-3.3,19.5c-2.1-2.9-3.9-6.1-5.2-9.5
	c-1.5-4.2-2.8-8.5-3.8-12.8c0,0-1.7-18.1-5-20.5s-2.9-13.8-2.9-13.8s4.8-9.3-1.9-13.1s-103.4-57.3-103.4-57.3l-2.4-71.2
	c0,0-1.7-52.6,8.3-70.2c0,0-1.2-7.6,0.5-11.9s-0.2-18.1-0.2-18.1L876.9,400.5z"/>
<path class="st6" d="M814.5,429c0,0-23.9-4.9-30.4-1.6c-6.4,3.3-19,6-21,7.9s-6.7,0.5-11,11.7s-4.8,22.6-10.2,27.8
	s-8.3,8.8-8.6,12.6s0.7,4.8-1.4,6s-5.2,6.2-4.3,8.1s49.6,43.8,49.6,43.8s2.4,16,4.5,20s-2.4,59.8-7.1,63.6s32.1,3.5,32.1,3.5
	s1.7-36.5,3.1-38.5s-1-41-1-41s-0.2-33.3,2.9-42.1s2.7-38.1,2.7-38.1s2.7-17.6,6.1-21.7C823.9,446.9,814.5,429,814.5,429z"/>
<path class="st13" d="M813.8,428.3c0,0-23.9-4.9-30.4-1.6c-6.4,3.3-19,6-21,7.9s-6.7,0.5-11,11.7s-4.8,22.6-10.2,27.9
	s-8.3,8.8-8.6,12.6s0.7,4.8-1.4,6s-5.2,6.2-4.3,8.1s49.5,43.8,49.5,43.8s2.4,16,4.5,20s-2.4,59.8-7.1,63.6s32.1,3.5,32.1,3.5
	s1.7-36.5,3.1-38.5s-1-41-1-41s-0.2-33.3,2.9-42.1s2.8-38.1,2.8-38.1s2.7-17.6,6.1-21.7C823.1,446.1,813.8,428.3,813.8,428.3z"/>
<path class="st6" d="M811.3,408.1c1.8,5.2,2.8,10.6,2.8,16.1c24.1,7.1,49.9-3.1,62.7-24.8c-1.2-5.9-1.9-11.8-2.3-17.8
	C874.4,381.7,801.1,377.9,811.3,408.1z"/>
<path class="st14" d="M775.1,370.5c0,30.1,24.5,54.5,54.6,54.5s54.5-24.5,54.5-54.6s-24.5-54.5-54.6-54.5c-25.7,0-48,18.1-53.3,43.2
	C775.5,362.9,775.1,366.7,775.1,370.5z"/>
<path class="st13" d="M740.1,496.7l-13.1,4c0,0,1.2,4.8-2.6,7.1s-3.3,7.2-3.3,7.2s-1.4,5.2-4.8,6.4s-5.5,9-5.5,9l-11,12.6
	c0,0-4,3.3-3.3,5s-4.3,2.1-4.3,2.1l2.6,42.4l22.6,4.3l14-1.4l11.4-4.3l10-6l4.6-11.6l20-30.5L740.1,496.7z"/>
<path class="st14" d="M695.6,553.6c0,0-29-41.9-50.7-19.3c-21.7,22.6,8.8,59.3,16,58.1s41.2-3.1,41.2-3.1L695.6,553.6z"/>
<path class="st0" d="M635.5,548.7l26.9-24.2c5.2-4.7,13.2-4.3,17.8,0.9l29.8,33.1c4.7,5.2,4.3,13.2-0.9,17.8l-26.9,24.2
	c-5.2,4.7-13.2,4.3-17.8-0.9l-29.8-33.1C629.9,561.3,630.4,553.3,635.5,548.7z"/>
<path class="st6" d="M635.5,548.7l26.9-24.2c5.2-4.7,13.2-4.3,17.8,0.9l29.8,33.1c4.7,5.2,4.3,13.2-0.9,17.8l-26.9,24.2
	c-5.2,4.7-13.2,4.3-17.8-0.9l-29.8-33.1C629.9,561.3,630.4,553.3,635.5,548.7z"/>
<path class="st0" d="M636.3,545.2l26.9-24.2c5.2-4.7,13.2-4.3,17.8,0.9l29.8,33.1c4.7,5.2,4.3,13.2-0.9,17.8L683,597
	c-5.2,4.7-13.2,4.3-17.8-0.9L635.4,563C630.8,557.9,631.2,549.9,636.3,545.2z"/>
<circle class="st1" cx="672.4" cy="560.7" r="13.6"/>
<circle class="st6" cx="672.4" cy="560.7" r="13.6"/>
<circle class="st1" cx="673.2" cy="559" r="13.6"/>
<path class="st14" d="M676.8,562.4c-0.2,31.4,64.8,38.1,64.8,38.1l16.6,2.6l7.4,1.2l3.1-30.7c0,0-3.4-0.5-7.7-1.5
	c-6.3-1.5-14.4-4-16.2-7.5C742,558.6,677,531,676.8,562.4z"/>
<path class="st6" d="M776.3,359.2c1.5,0.1,2.9,0.7,4,1.8c1.8,2,1.9,5.4,4.3,6.6c0.9,0.4,1.9,0.5,2.8,0.3c6.3-0.9,10-8,16.1-10
	c3.5-1.1,7.3-0.4,10.7,0.9c1.4,0.4,2.6,1.2,3.5,2.3c2,2.6,0.6,6.5,1.5,9.7c1.3,4.4,6.6,6.2,11.2,6.8s9.7,0.9,12.8,4.3
	c2.2,2.5,2.7,6,2.3,9.2c-0.3,1.1-0.3,2.3,0,3.4c1.3,3.6,7.4,3,9,0.2c1.2-2,0.8-3.8,3.6-4.3c1.9-0.4,4.1,0.4,5.8,1
	c4.8,1.7,10,2.5,15.1,2.3c12.7-27.3,0.9-59.7-26.4-72.5c-27.3-12.7-59.7-0.9-72.5,26.4C778.4,351.4,777.1,355.2,776.3,359.2z"/>
<path class="st11" d="M845.4,393.1c-0.3-1.1-0.3-2.3,0-3.4c0.4-3.2-0.1-6.8-2.3-9.2c-3-3.5-8.2-3.8-12.8-4.4s-9.8-2.3-11.2-6.8
	c-0.9-3.2,0.5-7.1-1.5-9.7c-0.9-1.1-2.2-1.8-3.5-2.3c-3.4-1.3-7.2-2-10.7-0.9c-6.1,2-9.7,9.1-16.1,10c-1,0.2-1.9,0.1-2.8-0.3
	c-2.4-1.2-2.5-4.7-4.3-6.6c-2.9-3.1-8.4-1.1-11.9-3.4c-2.3-1.5-3.2-4.4-3.8-7c-1.3-5.2-2.3-10.6-1.1-15.8c2.1-8.9,10-14.9,15-22.5
	c4.7-7,7.3-16,14.4-20.6c7.1-4.6,16.2-3.6,24.2-1.2c3.7,1.1,7.4,2.5,11.3,3c6.4,0.8,12.9-1,19.4-1.2c9.2-0.3,18.1,2.4,25.6,7.8
	c1.7,1.1,3.1,2.5,4.2,4.2c1.3,2.3,1.5,5,1.8,7.6c0.8,4.9,2.5,9.7,5,13.9c2,3.4,4.5,6.4,6.3,9.9s2.9,7.5,1.7,11.3
	c-0.6,2-1.8,3.7-2.3,5.7c-1.1,4.7,2,9.1,4.1,13.4c2,3.9,3,8.3,2.8,12.7c-0.2,4.4-2.3,8.6-5.7,11.4c-3.4,2.6-7.8,3.5-12.1,3.7
	c-5.2,0.2-10.4-0.6-15.4-2.3c-1.8-0.6-4-1.4-5.8-1c-2.8,0.6-2.4,2.3-3.6,4.3C852.9,396.1,846.7,396.6,845.4,393.1z"/>
<path class="st6" d="M816.1,700.5l30.7-24l48.3-47.6c0,0-6.5-0.3-16-0.7c-1.7,1.8-3.3,4-3.4,6.5c-0.2,5.8-13.1,0.4-19.7,3.7
	s-39.3,45.1-45,44.8s-10.2-2.9-12.6,1.2c-0.1,0.1-0.1,0.2-0.2,0.3c-1,1.1-2.2,1.8-3.6,2.2L816.1,700.5z"/>
<path class="st11" d="M754.2,698.8l15.4,49.3l2.4,7.7l7.3-2l16.2-4.5l72.2-19.8c0,0,13.6-0.2,26-6.9c13.8-7.5,29.3-11.2,44.8-9.8
	c9.5,0.9,20.2-3.2,29-19.5c0,0,20-59-30.5-76s-52.9,9-52.9,9s-0.3,0.1-0.7,0.4c-2,1.2-7.5,5.2-7.7,10c-0.2,5.8-13.1,0.4-19.7,3.7
	s-39.3,45.1-45,44.8s-10.2-2.9-12.6,1.2c0,0.1-0.1,0.2-0.2,0.3c-1.8,2.4-7.1,3-10.6,3.1c-1.9,0.1-3.3,0-3.3,0L784,690l-3.7,1
	L754.2,698.8z"/>
<path class="st6" d="M758.1,603.1l7.4,1.2l3.1-30.7c0,0-3.4-0.5-7.7-1.5C762.1,576.4,759.6,593,758.1,603.1z"/>
<path class="st6" d="M952.8,459.6c0,0,22.1-6.4,16.7,56.4s-46.4,102.6-46.4,102.6S876,639.3,854.8,636s-36.7-4-36.7-4
	c-6.7-3.4-14-5.3-21.4-5.7c-11.9-0.5-36.9-7.9-37.4-10.2s6.2-37.4,3.3-40c0,0,33.3,1.4,36.7,3.8s8.1,0.7,11.7,0s14.5-10.2,36.2-1.9
	c0,0,7.4,0.7,10.2-1.2s7.4-0.5,7.4-0.5s4.5-1.7,5.2-2.7s6.4,0,6.4,0c1.3,0.6,2.8,0.1,3.4-1.2c0.1-0.2,0.1-0.3,0.2-0.5
	c0.7-1.9,1.9-3.7,3.3-5.2c0,0,6.4-36.2,18.6-49.8c0,0,3.6-3.1,2.6-6.9S924.3,452,952.8,459.6z"/>
<path class="st13" d="M952.3,454.8c0,0,22.1-6.4,16.7,56.4s-46.5,102.6-46.5,102.6s-47.1,20.7-68.3,17.4s-36.7-4-36.7-4
	c-6.7-3.4-14-5.3-21.4-5.7c-11.9-0.5-36.9-7.9-37.4-10.2s6.2-37.4,3.3-40c0,0,33.3,1.4,36.7,3.8s8.1,0.7,11.7,0s14.5-10.2,36.2-1.9
	c0,0,7.4,0.7,10.2-1.2s7.5-0.5,7.5-0.5s4.5-1.7,5.2-2.6s6.4,0,6.4,0c1.3,0.6,2.8,0.1,3.4-1.2c0.1-0.2,0.1-0.3,0.2-0.5
	c0.7-2,1.9-3.7,3.3-5.2c0,0,6.4-36.2,18.6-49.8c0,0,3.6-3.1,2.6-6.9S923.7,447.2,952.3,454.8z"/>
<path class="st6" d="M780.3,691l31.4,38c0.1-0.1,0.2-0.2,0.2-0.2c0.2-0.7,3.3-8.8,2.6-9.3s-6.2-12.4-17.1-17.4
	c-6.7-3-11.1-8.5-13.5-12.2L780.3,691z"/>
<path class="st6" d="M780.7,756.9l3.4,2c0,0,8-6.4,15.9-12.8s15.6-12.8,15.8-13.1c0.2-0.7,3.3-8.8,2.6-9.3c-0.4-0.2-2-3.5-5-7.4
	c-21.3-6-7.8,8.8-5.9,9.5c0,0-26-6-27.4,22.3C779.9,751,780.1,754,780.7,756.9z"/>
<path class="st13" d="M807,768.8l4.5,2.6l46,1.2c0,0,9.9,6,16.3,7.8c0.8,0.2,1.5,0.4,2.3,0.5c4.3,0.3,8.5,0.4,12.8,0.2
	c3.5-0.1,6.2-0.2,6.2-0.2s-2.2-58-3.8-64c-0.8-2.9-4.6-2.3-8.4-0.8c-2.9,1.2-5.6,2.6-8.2,4.2c0,0-19.5,1.9-22.6,3.6s-11.9-1-17.4,0
	s-15.2-6.5-15.2-6.5c-26.7-8.8-11.7,7.6-9.8,8.3c0,0-25.9-6-27.4,22.3S807,768.8,807,768.8z"/>
<path class="st13" d="M873.4,746.5c0.5,12,9.8,26.9,15.4,34.8c3.5-0.1,6.2-0.2,6.2-0.2s-2.2-58-3.8-64c-0.8-2.9-4.6-2.3-8.4-0.8
	C878.3,724.8,873,736.8,873.4,746.5z"/>
<path class="st6" d="M873.4,746.5c0.5,12,9.8,26.9,15.4,34.8c3.5-0.1,6.2-0.2,6.2-0.2s-2.2-58-3.8-64c-0.8-2.9-4.6-2.3-8.4-0.8
	C878.3,724.8,873,736.8,873.4,746.5z"/>
<path class="st12" d="M865.6,748c3.2,11.6,3.1,24.6,8.2,32.4c0.8,0.2,1.5,0.4,2.3,0.5c4.3,0.3,8.5,0.4,12.8,0.2
	c3.5-0.1,6.2-0.2,6.2-0.2s-2.2-58-3.8-64c-0.8-2.9-4.6-2.3-8.4-0.8c-2.9,1.2-5.6,2.6-8.2,4.2C874.6,720.3,861.5,733.2,865.6,748z"/>
<path class="st6" d="M707.1,630.6c0,0,22.8,7.4,42.2,33.7L707.1,630.6z"/>
<g class="st15">
	<path d="M892.5,344.9c0,0.2-0.1,0.3-0.1,0.5c-0.2,0.7-0.5,1.4-0.8,2C891.8,346.5,892.1,345.7,892.5,344.9z"/>
	<path d="M763.4,333.3c0.4-1.7,1-3.3,1.8-4.8c-0.1,0.4-0.2,0.8-0.3,1.2c-1.2,5.2-0.2,10.6,1.1,15.8c0.7,2.7,1.5,5.6,3.8,7
		c3.5,2.3,9,0.3,11.9,3.3c1.8,2,1.9,5.4,4.3,6.6c0.9,0.4,1.9,0.5,2.8,0.3c6.3-0.9,10-8,16.1-10c3.5-1.1,7.3-0.4,10.7,0.9
		c1.4,0.4,2.6,1.2,3.5,2.3c2,2.6,0.6,6.5,1.5,9.7c1.3,4.4,6.6,6.2,11.2,6.8s9.7,0.9,12.8,4.4c2.2,2.4,2.7,6,2.3,9.2
		c-0.3,1.1-0.3,2.3,0,3.4c1.3,3.6,7.4,3,9,0.2c1.2-2,0.8-3.8,3.6-4.3c1.9-0.4,4.1,0.4,5.8,1c4.9,1.7,10.2,2.5,15.4,2.3
		c4.3-0.2,8.7-1,12.1-3.7c1.5-1.2,2.8-2.8,3.7-4.5c-0.8,3.2-2.6,6-5.1,8.1c-3.4,2.6-7.8,3.5-12.1,3.7c-5.2,0.2-10.4-0.6-15.4-2.3
		c-1.8-0.6-4-1.4-5.8-1c-2.8,0.6-2.4,2.3-3.6,4.3c-1.6,2.8-7.8,3.4-9.1-0.2c-0.3-1.1-0.3-2.3,0-3.4c0.4-3.2-0.1-6.8-2.3-9.2
		c-3.1-3.5-8.2-3.8-12.8-4.4s-9.8-2.3-11.2-6.8c-1-3.2,0.5-7.1-1.5-9.7c-1-1.1-2.2-1.8-3.5-2.3c-3.4-1.3-7.2-2-10.7-0.9
		c-6.1,2-9.8,9.1-16.1,10c-1,0.2-1.9,0.1-2.8-0.3c-2.4-1.2-2.5-4.7-4.3-6.6c-2.9-3.1-8.4-1.1-11.9-3.4c-2.3-1.5-3.2-4.4-3.8-7
		C763.2,344,762.2,338.5,763.4,333.3z"/>
</g>
<path class="st6" d="M896.2,523.9c-4.4,5.9-9.3,11.3-13.2,17.6s-6.6,13.5-5.8,20.8c4-4.1,5.8-9.8,8.3-14.9
	c4.3-8.7,10.6-16.1,16-24.1c1-1.5,7.6-10.3,4.3-10.8C903.1,512.2,897.7,521.9,896.2,523.9z"/>
<text transform="matrix(1 0 0 1 297.525 436.6924)" class="st16 st17 st18">S</text>
<text transform="matrix(1 0 0 1 294.9413 500.595)" class="st16 st17 st18">C</text>
<text transform="matrix(1 0 0 1 296.4739 566.775)" class="st16 st17 st18">R</text>
</svg>
